<?xml version="1.0" standalone="no"?>
<!DOCTYPE svg PUBLIC "-//W3C//DTD SVG 20010904//EN"
 "http://www.w3.org/TR/2001/REC-SVG-20010904/DTD/svg10.dtd">
<svg version="1.0" xmlns="http://www.w3.org/2000/svg"
 width="512.000000pt" height="512.000000pt" viewBox="0 0 512.000000 512.000000"
 preserveAspectRatio="xMidYMid meet">

<g transform="translate(0.000000,512.000000) scale(0.100000,-0.100000)"
fill="#000000" stroke="none">
<path d="M503 4380 c-86 -23 -131 -45 -206 -102 -98 -75 -165 -177 -198 -305
-18 -74 -19 -124 -19 -1481 0 -1563 -5 -1444 68 -1500 l35 -27 234 -3 c184 -2
233 -6 233 -16 0 -7 16 -45 35 -84 43 -85 102 -142 195 -186 59 -28 74 -31
161 -31 90 0 99 2 171 38 89 44 146 102 189 192 16 33 29 66 29 73 0 9 201 12
970 12 813 0 970 -2 970 -14 0 -34 74 -158 118 -197 139 -122 310 -141 471
-53 84 45 163 147 185 236 l6 27 394 3 c381 3 396 4 422 24 15 11 37 33 48 48
20 27 21 39 21 414 0 428 -2 445 -68 580 -18 36 -226 340 -463 676 -353 500
-438 615 -470 633 l-39 23 -557 0 -558 0 0 80 0 80 1055 0 1056 0 25 25 26 26
-4 187 c-5 214 -19 274 -88 380 -81 126 -191 205 -336 242 -76 20 -117 20
-2058 19 -1904 0 -1984 -1 -2053 -19z m4149 -182 c91 -45 148 -103 191 -196
29 -62 32 -77 35 -194 l4 -128 -1056 0 -1057 0 -24 -25 -25 -24 0 -1256 0
-1255 -645 0 c-538 0 -645 2 -645 14 0 7 -16 45 -35 83 -43 86 -103 144 -193
186 -61 29 -76 32 -162 32 -86 0 -101 -3 -162 -32 -90 -42 -150 -100 -193
-186 -19 -38 -35 -76 -35 -83 0 -11 -38 -14 -205 -14 l-205 0 0 240 0 240 719
0 720 0 3 -148 c3 -144 4 -150 30 -184 52 -69 55 -69 461 -66 l364 3 35 27
c72 55 68 7 68 888 0 881 4 833 -68 888 l-35 27 -377 0 -377 0 -35 -27 c-70
-54 -68 -31 -68 -672 l0 -576 -720 0 -720 0 0 1063 c0 664 4 1078 10 1105 33
143 156 268 296 301 23 5 853 8 2035 8 l1995 -2 76 -37z m-638 -1075 l54 -78
-142 -5 c-136 -5 -144 -6 -178 -32 -70 -54 -69 -41 -66 -581 l3 -484 27 -35
c53 -70 36 -68 627 -68 499 0 531 -1 531 -17 0 -10 3 -28 6 -40 l6 -23 -1001
0 -1001 0 0 720 0 720 540 0 539 0 55 -77z m-1534 -1003 l0 -760 -320 0 -320
0 0 760 0 760 320 0 320 0 0 -760z m1996 348 c160 -227 299 -425 309 -440 l17
-28 -481 0 -481 0 0 440 0 440 173 0 172 0 291 -412z m404 -948 l0 -80 -96 0
c-111 0 -151 -14 -192 -68 -25 -33 -27 -44 -30 -144 l-4 -108 -204 0 -204 0
-6 28 c-12 52 -67 142 -111 183 -24 22 -74 55 -111 72 -61 29 -76 32 -162 32
-86 0 -101 -3 -162 -32 -90 -42 -150 -100 -193 -186 -19 -38 -35 -76 -35 -83
0 -12 -45 -14 -245 -14 l-245 0 0 240 0 240 1000 0 1000 0 0 -80z m-3759 -255
c88 -31 159 -131 159 -225 0 -125 -114 -240 -238 -240 -59 0 -112 22 -162 67
-107 96 -107 250 0 346 73 66 153 83 241 52z m2720 0 c88 -31 159 -131 159
-225 0 -125 -114 -240 -238 -240 -59 0 -112 22 -162 67 -107 96 -107 250 0
346 73 66 153 83 241 52z m1039 -65 l0 -80 -80 0 -80 0 0 80 0 80 80 0 80 0 0
-80z"/>
<path d="M2745 4135 c-24 -23 -25 -28 -25 -175 0 -147 1 -152 25 -175 l24 -25
831 0 831 0 24 25 c24 23 25 28 25 175 0 147 -1 152 -25 175 l-24 25 -831 0
-831 0 -24 -25z m1575 -175 l0 -40 -720 0 -720 0 0 40 0 40 720 0 720 0 0 -40z"/>
<path d="M412 3023 c-18 -9 -45 -32 -60 -51 l-27 -35 0 -217 0 -217 27 -35
c53 -70 38 -68 608 -68 570 0 555 -2 608 68 l27 35 0 217 0 217 -27 35 c-53
70 -38 68 -610 68 -454 0 -517 -2 -546 -17z m1028 -303 l0 -160 -480 0 -480 0
0 160 0 160 480 0 480 0 0 -160z"/>
</g>
</svg>
