<svg xmlns="http://www.w3.org/2000/svg" aria-hidden="true" style="position:absolute;width:0;height:0;overflow:hidden">
  <defs>
    <symbol id="icon-Property-1star" viewBox="0 0 32 32">
      <path fill="#f2f4f7" d="M15.116 1.676a1 1 0 0 1 1.769 0l3.777 7.158c.145.274.408.466.714.519l7.975 1.38a1 1 0 0 1 .547 1.682l-5.641 5.804a1 1 0 0 0-.273.839l1.152 8.01a1 1 0 0 1-1.431 1.04l-7.263-3.571a.998.998 0 0 0-.882 0l-7.262 3.571a1 1 0 0 1-1.431-1.04l1.152-8.01a1 1 0 0 0-.273-.839l-5.64-5.804a1 1 0 0 1 .547-1.682l7.974-1.38a.998.998 0 0 0 .714-.519l3.776-7.158z" style="fill:var(--color1, #f2f4f7)"/>
    </symbol>
    <symbol id="icon-bi_droplet" viewBox="0 0 32 32">
      <path d="M14.42 1.6C15.38.59 16 0 16 0c.219.725.466 1.417.742 2.076 1.624 3.892 4.146 6.7 6.394 9.2C25.756 14.192 28 16.69 28 20a12.003 12.003 0 0 1-12 12A11.998 11.998 0 0 1 4 20c0-6.664 7.16-14.966 10.42-18.4zm.826 2.042a62.033 62.033 0 0 0-3.658 4.338c-1.452 1.9-2.872 4.016-3.92 6.14C6.608 16.266 6 18.276 6 20a10.001 10.001 0 0 0 20 0c0-2.402-1.592-4.314-4.362-7.4l-.06-.064C19.5 10.22 17 7.442 15.246 3.642z"/>
      <path d="M9.106 15.552c1.64-3.282 3.434-5.506 4.186-6.26l1.416 1.416c-.58.58-2.256 2.622-3.814 5.74l-1.788-.896z"/>
    </symbol>
    <symbol id="icon-bi_grid" viewBox="0 0 32 32">
      <path d="M2 5a3.004 3.004 0 0 1 3-3h6a3.004 3.004 0 0 1 3 3v6a3.004 3.004 0 0 1-3 3H5a3.004 3.004 0 0 1-3-3V5zm3-1a.997.997 0 0 0-1 1v6a.997.997 0 0 0 1 1h6a.997.997 0 0 0 1-1V5a.997.997 0 0 0-1-1H5zm13 1a3.004 3.004 0 0 1 3-3h6a3.004 3.004 0 0 1 3 3v6a3.004 3.004 0 0 1-3 3h-6a3.004 3.004 0 0 1-3-3V5zm3-1a.997.997 0 0 0-1 1v6a.997.997 0 0 0 1 1h6a.997.997 0 0 0 1-1V5a.997.997 0 0 0-1-1h-6zM2 21a3.004 3.004 0 0 1 3-3h6a3.004 3.004 0 0 1 3 3v6a3.004 3.004 0 0 1-3 3H5a3.004 3.004 0 0 1-3-3v-6zm3-1a.997.997 0 0 0-1 1v6a.997.997 0 0 0 1 1h6a.997.997 0 0 0 1-1v-6a.997.997 0 0 0-1-1H5zm13 1a3.004 3.004 0 0 1 3-3h6a3.004 3.004 0 0 1 3 3v6a3.004 3.004 0 0 1-3 3h-6a3.004 3.004 0 0 1-3-3v-6zm3-1a.997.997 0 0 0-1 1v6a.997.997 0 0 0 1 1h6a.997.997 0 0 0 1-1v-6a.997.997 0 0 0-1-1h-6z"/>
    </symbol>
    <symbol id="icon-bi_grid-1x2" viewBox="0 0 32 32">
      <path d="M12 2H2v28h10V2zm18 0H20v10h10V2zm0 18v10H20V20h10zM0 2a2 2 0 0 1 2-2h10a2 2 0 0 1 2 2v28a2 2 0 0 1-2 2H2a2 2 0 0 1-2-2V2zm18 0a2 2 0 0 1 2-2h10a2 2 0 0 1 2 2v10a2 2 0 0 1-2 2H20a2 2 0 0 1-2-2V2zm2 16a2 2 0 0 0-2 2v10a2 2 0 0 0 2 2h10a2 2 0 0 0 2-2V20a2 2 0 0 0-2-2H20z"/>
    </symbol>
    <symbol id="icon-bi_grid-3x3-gap" viewBox="0 0 32 32">
      <path d="M8 4v4H4V4h4zm2 24v-4a2 2 0 0 0-2-2H4a2 2 0 0 0-2 2v4a2 2 0 0 0 2 2h4a2 2 0 0 0 2-2zm0-10v-4a2 2 0 0 0-2-2H4a2 2 0 0 0-2 2v4a2 2 0 0 0 2 2h4a2 2 0 0 0 2-2zm0-10V4a2 2 0 0 0-2-2H4a2 2 0 0 0-2 2v4a2 2 0 0 0 2 2h4a2 2 0 0 0 2-2zm10 20v-4a2 2 0 0 0-2-2h-4a2 2 0 0 0-2 2v4a2 2 0 0 0 2 2h4a2 2 0 0 0 2-2zm0-10v-4a2 2 0 0 0-2-2h-4a2 2 0 0 0-2 2v4a2 2 0 0 0 2 2h4a2 2 0 0 0 2-2zm0-10V4a2 2 0 0 0-2-2h-4a2 2 0 0 0-2 2v4a2 2 0 0 0 2 2h4a2 2 0 0 0 2-2zm-2-4v4h-4V4h4zm10 0v4h-4V4h4zM8 14v4H4v-4h4zm10 0v4h-4v-4h4zm10 0h-4v4h4v-4zM8 24v4H4v-4h4zm10 0v4h-4v-4h4zm10 0v4h-4v-4h4zM24 2a2 2 0 0 0-2 2v4a2 2 0 0 0 2 2h4a2 2 0 0 0 2-2V4a2 2 0 0 0-2-2h-4zm-2 12a2 2 0 0 1 2-2h4a2 2 0 0 1 2 2v4a2 2 0 0 1-2 2h-4a2 2 0 0 1-2-2v-4zm2 8a2 2 0 0 0-2 2v4a2 2 0 0 0 2 2h4a2 2 0 0 0 2-2v-4a2 2 0 0 0-2-2h-4z"/>
    </symbol>
    <symbol id="icon-cup-hot" viewBox="0 0 32 32">
      <path d="M1 12a1.007 1.007 0 0 0-.779.374.997.997 0 0 0-.197.842l3.304 14.868A4.998 4.998 0 0 0 8.208 32h11.584a4.996 4.996 0 0 0 4.88-3.916l.262-1.18a6 6 0 0 0 2.601-11.708l.442-1.98A1.003 1.003 0 0 0 27.001 12h-26zm25 13a4.05 4.05 0 0 1-.632-.05l1.734-7.796A4.002 4.002 0 0 1 26 25zM5.28 27.65 2.246 14h23.508L22.72 27.65A2.995 2.995 0 0 1 19.792 30H8.208a2.998 2.998 0 0 1-2.928-2.35zM8.8 1.6l-.006.008-.028.038c-.146.2-.282.407-.408.62a4.003 4.003 0 0 0-.282.534c-.052.12-.068.184-.074.206v.008c.023.177.085.346.182.496.15.266.356.544.616.89l.02.024c.236.316.52.694.74 1.086.224.4.44.91.44 1.49 0 .376-.13.736-.238.988a6.142 6.142 0 0 1-.404.776 10.2 10.2 0 0 1-.506.764l-.036.05-.01.016-.004.004a1.004 1.004 0 0 1-1.4.202A1 1 0 0 1 7.2 8.4l.006-.008.028-.038c.146-.2.282-.407.408-.62.107-.171.202-.349.282-.534.052-.12.068-.184.074-.206a1.199 1.199 0 0 0-.18-.504A8.024 8.024 0 0 0 7.2 5.6l-.02-.024c-.27-.345-.517-.708-.74-1.086A3.066 3.066 0 0 1 6 3c0-.376.13-.736.238-.988.118-.276.268-.548.404-.776.159-.261.328-.516.506-.764l.05-.07A1.004 1.004 0 0 1 8.598.2 1.004 1.004 0 0 1 8.8 1.6zm6 0-.006.008-.028.038c-.146.2-.282.407-.408.62a4.003 4.003 0 0 0-.282.534c-.052.12-.068.184-.074.206v.008c.023.177.085.346.182.496.15.266.356.544.616.89l.02.024c.236.316.52.694.74 1.086.224.4.44.91.44 1.49 0 .376-.13.736-.238.988a6.142 6.142 0 0 1-.404.776 10.2 10.2 0 0 1-.506.764l-.036.05-.01.016-.004.004a1.004 1.004 0 0 1-1.4.202 1 1 0 0 1-.202-1.4l.006-.008.028-.038c.146-.2.282-.407.408-.62.107-.171.202-.349.282-.534.052-.12.068-.184.074-.206a1.199 1.199 0 0 0-.18-.504 8.024 8.024 0 0 0-.618-.89l-.02-.024c-.27-.345-.517-.708-.74-1.086A3.066 3.066 0 0 1 12 3c0-.376.13-.736.238-.988.118-.276.268-.548.404-.776.159-.261.328-.516.506-.764l.05-.07a1.004 1.004 0 0 1 1.4-.202 1 1 0 0 1 .202 1.4zm6 0-.006.008-.028.038c-.145.2-.282.407-.408.62a4.003 4.003 0 0 0-.282.534c-.052.12-.068.184-.074.206v.008c.023.177.085.346.182.496.15.266.356.544.616.89l.02.024c.236.316.52.694.74 1.086.224.4.44.91.44 1.49 0 .376-.13.736-.238.988a6.142 6.142 0 0 1-.404.776 9.875 9.875 0 0 1-.504.764l-.038.05-.01.016-.004.004a1.004 1.004 0 0 1-1.4.202 1 1 0 0 1-.202-1.4l.006-.008.028-.038c.145-.2.282-.407.408-.62.107-.171.202-.349.282-.534.052-.12.068-.184.074-.206a1.199 1.199 0 0 0-.18-.504 8.024 8.024 0 0 0-.618-.89l-.02-.024c-.27-.345-.517-.708-.74-1.086A3.066 3.066 0 0 1 18 3c0-.376.13-.736.238-.988.118-.276.268-.548.404-.776.159-.261.328-.516.506-.764l.05-.07a1.004 1.004 0 0 1 1.4-.202 1 1 0 0 1 .202 1.4z"/>
    </symbol>
    <symbol id="icon-diagram" viewBox="0 0 32 32">
      <path d="M12 7a3.004 3.004 0 0 1 3-3h2a3.004 3.004 0 0 1 3 3v2a3.004 3.004 0 0 1-3 3v2h11a.997.997 0 0 1 1 1v2a.997.997 0 0 1-1 1 .997.997 0 0 1-1-1v-1H17v1a.997.997 0 0 1-1 1 .997.997 0 0 1-1-1v-1H5v1a.997.997 0 0 1-1 1 .997.997 0 0 1-1-1v-2a.997.997 0 0 1 1-1h11v-2a3.004 3.004 0 0 1-3-3V7zm5 3a.997.997 0 0 0 1-1V7a.997.997 0 0 0-1-1h-2a.997.997 0 0 0-1 1v2a.997.997 0 0 0 1 1h2zM0 23a3.004 3.004 0 0 1 3-3h2a3.004 3.004 0 0 1 3 3v2a3.004 3.004 0 0 1-3 3H3a3.004 3.004 0 0 1-3-3v-2zm3-1a.997.997 0 0 0-1 1v2a.997.997 0 0 0 1 1h2a.997.997 0 0 0 1-1v-2a.997.997 0 0 0-1-1H3zm9 1a3.004 3.004 0 0 1 3-3h2a3.004 3.004 0 0 1 3 3v2a3.004 3.004 0 0 1-3 3h-2a3.004 3.004 0 0 1-3-3v-2zm3-1a.997.997 0 0 0-1 1v2a.997.997 0 0 0 1 1h2a.997.997 0 0 0 1-1v-2a.997.997 0 0 0-1-1h-2zm9 1a3.004 3.004 0 0 1 3-3h2a3.004 3.004 0 0 1 3 3v2a3.004 3.004 0 0 1-3 3h-2a3.004 3.004 0 0 1-3-3v-2zm3-1a.997.997 0 0 0-1 1v2a.997.997 0 0 0 1 1h2a.997.997 0 0 0 1-1v-2a.997.997 0 0 0-1-1h-2z"/>
    </symbol>
    <symbol id="icon-fuel-pump" viewBox="0 0 32 32">
      <path d="M6 5a.997.997 0 0 1 1-1h10a.997.997 0 0 1 1 1v10a.997.997 0 0 1-1 1H7a.997.997 0 0 1-1-1V5z"/>
      <path d="M2 4a4.003 4.003 0 0 1 4-4h12a4.003 4.003 0 0 1 4 4v16a4.003 4.003 0 0 1 4 4v1a.997.997 0 0 0 1 1 .997.997 0 0 0 1-1v-9h-1a.997.997 0 0 1-1-1V8.75a.997.997 0 0 1 1-1h2.99c-.022-.952-.106-1.788-.402-2.444a1.944 1.944 0 0 0-.788-.916C28.432 4.17 27.872 4 27 4a.997.997 0 0 1-1-1 .997.997 0 0 1 1-1c1.128-.003 2.069.221 2.824.672.766.456 1.268 1.102 1.588 1.814.59 1.31.588 2.93.588 4.162v6.35c0 .132-.025.262-.076.383s-.124.232-.217.325a.991.991 0 0 1-.708.293h-1v9a3.004 3.004 0 0 1-3 3 2.998 2.998 0 0 1-3-3v-1a2 2 0 0 0-2-2v8h1a.997.997 0 0 1 1 1 .997.997 0 0 1-1 1h-22a.997.997 0 0 1-1-1 .997.997 0 0 1 1-1h1v-26zm18 0a2 2 0 0 0-2-2H6a2 2 0 0 0-2 2v26h16V4z"/>
    </symbol>
    <symbol id="icon-Icon-Stroke" viewBox="0 0 18 32">
      <path fill="#475467" d="M17.414.586a2 2 0 0 1 0 2.828L4.828 16l12.586 12.586a2 2 0 1 1-2.828 2.828l-14-14a2 2 0 0 1 0-2.828l14-14a2 2 0 0 1 2.828 0z" style="fill:var(--color2, #475467)"/>
    </symbol>
    <symbol id="icon-map" viewBox="0 0 32 32">
      <path d="M31.634.226A.991.991 0 0 1 32 1v28a.999.999 0 0 1-.804.98l-10 2a.995.995 0 0 1-.392 0L11 30.02l-9.804 1.96a.995.995 0 0 1-1.1-.552A1.003 1.003 0 0 1 0 31V3a.999.999 0 0 1 .804-.98l10-2a.995.995 0 0 1 .392 0L21 1.98 30.804.02a.996.996 0 0 1 .83.206zM20 3.82l-8-1.6v25.96l8 1.6V3.82zm2 25.96 8-1.6V2.22l-8 1.6v25.96zm-12-1.6V2.22l-8 1.6v25.96l8-1.6z"/>
    </symbol>
    <symbol id="icon-people" viewBox="0 0 32 32">
      <path d="M30 28s2 0 2-2-2-8-10-8-10 6-10 8 2 2 2 2h16zm-15.956-2L14 25.992c.002-.528.334-2.06 1.52-3.44C16.624 21.258 18.564 20 22 20c3.434 0 5.374 1.26 6.48 2.552 1.186 1.38 1.516 2.914 1.52 3.44l-.016.004-.028.004H14.044zM22 14a4.003 4.003 0 0 0 4-4 4.001 4.001 0 0 0-6.828-2.828 4.001 4.001 0 0 0 0 5.656A4.001 4.001 0 0 0 22 14zm6-4a5.99 5.99 0 0 1-1.757 4.243A6.01 6.01 0 0 1 22 16.001a5.99 5.99 0 0 1-4.243-1.758A5.99 5.99 0 0 1 16 10a5.996 5.996 0 0 1 6-6 6.002 6.002 0 0 1 6 6zm-14.128 8.56c-.8-.25-1.625-.416-2.46-.494A13.873 13.873 0 0 0 10 18c-8 0-10 6-10 8 0 1.333.667 2 2 2h8.432A4.487 4.487 0 0 1 10 26c0-2.02.754-4.084 2.18-5.808a10.583 10.583 0 0 1 1.692-1.632zM9.84 20A11.003 11.003 0 0 0 8 26H2c0-.52.328-2.06 1.52-3.448 1.09-1.272 2.984-2.512 6.32-2.55V20zM3 11a5.996 5.996 0 0 1 6-6 5.996 5.996 0 0 1 6 6 5.996 5.996 0 0 1-6 6 5.996 5.996 0 0 1-6-6zm6-4a4.003 4.003 0 0 0-4 4 4.003 4.003 0 0 0 4 4 4.003 4.003 0 0 0 4-4 4.003 4.003 0 0 0-4-4z"/>
    </symbol>
    <symbol id="icon-Property-heart" viewBox="0 0 32 32">
      <path d="m16 13.139-1.788-3.578c-.444-.886-1.214-2.16-2.304-3.19C10.836 5.357 9.552 4.667 8 4.667c-3.352 0-6 2.652-6 5.84 0 2.422 1.108 4.132 3.736 6.74.674.668 1.442 1.39 2.292 2.186C10.244 21.513 13 24.101 16 27.561c3-3.46 5.756-6.048 7.972-8.128.85-.796 1.62-1.52 2.292-2.186C28.892 14.639 30 12.929 30 10.507c0-3.188-2.648-5.84-6-5.84-1.554 0-2.836.69-3.908 1.704-1.09 1.03-1.86 2.304-2.304 3.19L16 13.139zm.784 16.584a1.022 1.022 0 0 1-1.216.269 1.04 1.04 0 0 1-.352-.269c-3.202-3.804-6.1-6.524-8.486-8.762C2.6 17.083 0 14.645 0 10.507c0-4.33 3.58-7.84 8-7.84 3.2 0 5.438 2.1 6.808 4.016.52.73.916 1.432 1.192 1.984.346-.691.745-1.354 1.192-1.984C18.562 4.765 20.8 2.667 24 2.667c4.42 0 8 3.51 8 7.84 0 4.138-2.6 6.576-6.73 10.454-2.386 2.24-5.284 4.962-8.486 8.762z"/>
    </symbol>
    <symbol id="icon-rating" viewBox="0 0 34 32">
      <path d="M16.123 1.788a1.067 1.067 0 0 1 1.887 0l4.028 7.635c.154.293.436.497.761.553l8.506 1.472a1.066 1.066 0 0 1 .583 1.794l-6.017 6.19c-.23.237-.338.568-.291.895l1.229 8.544a1.066 1.066 0 0 1-1.526 1.109l-7.747-3.809a1.066 1.066 0 0 0-.941 0L8.848 29.98a1.066 1.066 0 0 1-1.526-1.109l1.229-8.544a1.065 1.065 0 0 0-.291-.895l-6.016-6.19a1.066 1.066 0 0 1 .583-1.794l8.506-1.472c.326-.056.607-.261.762-.553l4.028-7.635z" />
    </symbol>
    <symbol id="icon-TravelTrucks" viewBox="0 0 290 32">
      <path fill="#475467" d="M288.838 15.333h-7.697a2.114 2.114 0 0 0-.501-1.227 2.81 2.81 0 0 0-1.135-.788 3.87 3.87 0 0 0-1.517-.288c-.717 0-1.333.131-1.847.394-.516.263-.768.636-.757 1.121-.011.343.137.662.439.955.311.293.913.52 1.803.682l4.727.849c2.383.434 4.156 1.167 5.318 2.197 1.171 1.02 1.762 2.389 1.773 4.106-.011 1.657-.506 3.096-1.485 4.318-.971 1.212-2.3 2.151-3.985 2.818-1.677.656-3.593.985-5.743.985-3.556 0-6.338-.727-8.348-2.182-2.001-1.454-3.117-3.374-3.349-5.758h8.303a2.388 2.388 0 0 0 1.09 1.712c.627.394 1.414.591 2.364.591.768 0 1.399-.131 1.894-.394.506-.263.764-.636.772-1.121-.009-.445-.233-.798-.666-1.061-.425-.263-1.092-.475-2.001-.636l-4.119-.727c-2.374-.414-4.151-1.202-5.333-2.364s-1.769-2.657-1.758-4.485c-.011-1.616.414-2.985 1.271-4.106.868-1.131 2.106-1.99 3.712-2.576 1.617-.596 3.531-.894 5.743-.894 3.364 0 6.016.697 7.955 2.091 1.95 1.394 2.974 3.323 3.076 5.788zM248.352 25.515l.06-9.939h1.092l5.636-7.818h9.393l-9.455 12.182h-2.364l-4.363 5.576zm-7.516 5.515V0h8.365v31.03h-8.365zm14.364 0-5.333-9.212 5.455-5.939 9.455 15.152H255.2zM225.321 31.454c-2.526 0-4.687-.5-6.485-1.5-1.798-1.01-3.177-2.414-4.137-4.212-.96-1.808-1.439-3.904-1.439-6.288s.479-4.475 1.439-6.273a10.193 10.193 0 0 1 4.137-4.212c1.798-1.01 3.959-1.515 6.485-1.515 2.283 0 4.256.414 5.924 1.242 1.677.818 2.974 1.98 3.893 3.485.919 1.495 1.385 3.253 1.393 5.273h-7.757c-.111-1.222-.465-2.152-1.06-2.788-.587-.646-1.344-.97-2.272-.97-.727 0-1.365.212-1.909.636-.546.414-.971 1.045-1.274 1.894-.303.838-.454 1.894-.454 3.167s.151 2.333.454 3.182c.303.838.727 1.47 1.274 1.894.544.414 1.182.621 1.909.621.614 0 1.161-.141 1.636-.424.474-.293.858-.717 1.15-1.273.303-.566.486-1.252.546-2.061h7.757c-.03 2.051-.499 3.838-1.408 5.364-.909 1.515-2.197 2.687-3.863 3.515-1.658.828-3.637 1.242-5.939 1.242zM200.637 20.848V7.757h8.364V31.03h-7.939v-4.424h-.243c-.505 1.485-1.389 2.646-2.651 3.485-1.263.828-2.763 1.242-4.5 1.242-1.626 0-3.051-.374-4.273-1.121-1.212-.748-2.157-1.778-2.833-3.091-.667-1.313-1.005-2.818-1.015-4.515V7.757h8.364v13.091c.01 1.152.303 2.056.879 2.712.586.657 1.404.985 2.455.985.697 0 1.298-.147 1.803-.439a3 3 0 0 0 1.182-1.273c.283-.556.419-1.217.409-1.985zM166.193 31.03V7.757h8.121v4.424h.242c.424-1.636 1.096-2.833 2.015-3.591.929-.758 2.015-1.136 3.258-1.136.364 0 .722.03 1.076.091.364.051.712.126 1.045.227v7.136c-.414-.141-.924-.247-1.53-.318s-1.126-.106-1.561-.106c-.818 0-1.556.187-2.212.561a3.96 3.96 0 0 0-1.53 1.545c-.374.657-.561 1.429-.561 2.318v12.121h-8.364zM137.495 6.788V0h26.97v6.788h-9.333v24.243h-8.303V6.788h-9.333z" style="fill:var(--color2, #475467)"/>
      <path fill="#101828" d="M133.35 0v31.03h-8.364V0h8.364zM109.326 31.454c-2.485 0-4.626-.475-6.424-1.424a9.975 9.975 0 0 1-4.136-4.121c-.96-1.798-1.439-3.949-1.439-6.455 0-2.404.485-4.505 1.454-6.303s2.338-3.197 4.106-4.197c1.768-1 3.854-1.5 6.258-1.5 1.757 0 3.348.273 4.773.818s2.641 1.338 3.651 2.379c1.01 1.03 1.788 2.283 2.333 3.758s.818 3.136.818 4.985v1.939H99.932v-4.606h13.091c-.01-.667-.182-1.253-.515-1.758a3.286 3.286 0 0 0-1.318-1.197c-.546-.293-1.167-.439-1.864-.439-.677 0-1.298.146-1.864.439a3.526 3.526 0 0 0-1.364 1.182c-.333.505-.51 1.096-.53 1.773v4.97c0 .747.157 1.414.47 2s.763 1.045 1.348 1.379c.586.333 1.293.5 2.121.5.576 0 1.101-.081 1.576-.242a3.546 3.546 0 0 0 1.242-.697c.343-.313.596-.687.758-1.121h7.636c-.263 1.616-.884 3.02-1.864 4.212-.98 1.182-2.278 2.101-3.894 2.758-1.606.646-3.485.97-5.636.97zM95.651 7.758l-7.818 23.273h-9.697L70.318 7.758h8.788l3.758 15.394h.242l3.758-15.394h8.788zM53.453 31.394c-1.485 0-2.798-.242-3.939-.727-1.131-.495-2.02-1.242-2.667-2.242s-.97-2.273-.97-3.818c0-1.273.217-2.359.652-3.258.434-.909 1.04-1.651 1.818-2.227s1.682-1.015 2.712-1.318a16.44 16.44 0 0 1 3.364-.591c1.303-.101 2.348-.222 3.136-.364.798-.151 1.374-.359 1.727-.621.353-.273.53-.631.53-1.076v-.061c0-.606-.232-1.071-.697-1.394s-1.061-.485-1.788-.485c-.798 0-1.449.177-1.955.53-.495.343-.793.874-.894 1.591h-7.697a7.94 7.94 0 0 1 1.348-3.909c.808-1.202 1.985-2.162 3.53-2.879 1.545-.727 3.475-1.091 5.788-1.091 1.667 0 3.162.197 4.485.591 1.323.384 2.449.924 3.379 1.621.929.687 1.636 1.495 2.121 2.424.495.919.742 1.919.742 3v15.939H60.36v-3.273h-.182c-.465.869-1.03 1.571-1.697 2.106a6.26 6.26 0 0 1-2.258 1.167c-.838.242-1.763.364-2.773.364zm2.727-5.273c.636 0 1.232-.131 1.788-.394.566-.263 1.025-.642 1.379-1.136s.53-1.096.53-1.803v-1.939a9.74 9.74 0 0 1-.712.258 14.606 14.606 0 0 1-1.667.424c-.303.061-.621.116-.954.167-.646.101-1.177.268-1.591.5-.404.222-.707.5-.909.834a2.095 2.095 0 0 0-.288 1.091c0 .647.227 1.142.682 1.485s1.035.515 1.742.515zM28.698 31.03V7.757h8.121v4.424h.242c.424-1.636 1.096-2.833 2.015-3.591.929-.758 2.015-1.136 3.258-1.136.364 0 .722.03 1.076.091.364.051.712.126 1.045.227v7.136c-.414-.141-.924-.247-1.53-.318s-1.126-.106-1.561-.106c-.818 0-1.555.187-2.212.561a3.96 3.96 0 0 0-1.53 1.545c-.374.657-.561 1.429-.561 2.318v12.121h-8.364zM0 6.788V0h26.97v6.788h-9.333v24.243H9.334V6.788H.001z" style="fill:var(--color3, #101828)"/>
    </symbol>
    <symbol id="icon-tv" viewBox="0 0 32 32">
      <path d="M0 8s0-4 4-4h24s4 0 4 4v12s0 4-4 4h-8c0 1.333.167 2.333.5 3H22a.997.997 0 0 1 1 1 .997.997 0 0 1-1 1H10a.997.997 0 0 1-1-1 .997.997 0 0 1 1-1h1.5c.333-.667.5-1.667.5-3H4s-4 0-4-4V8zm2.796-1.71c-.22.153-.395.361-.508.604A3.013 3.013 0 0 0 2 8.02V20c0 .65.156 1.004.29 1.204.14.208.341.377.604.508.338.162.703.259 1.076.286l.05.002H28c.65 0 1.004-.156 1.204-.29.22-.153.395-.361.508-.604.162-.338.259-.703.286-1.076l.002-.05V8c0-.65-.156-1.004-.29-1.204a1.511 1.511 0 0 0-.604-.508A3.018 3.018 0 0 0 27.98 6H4c-.65 0-1.004.156-1.204.29z"/>
    </symbol>
    <symbol id="icon-ui-radios" viewBox="0 0 32 32">
      <path d="M14 5a.997.997 0 0 1 1-1h14a.997.997 0 0 1 1 1v2a.997.997 0 0 1-1 1H15a.997.997 0 0 1-1-1V5zM0 24a5.996 5.996 0 0 1 6-6 6.002 6.002 0 0 1 4.243 10.243A6 6 0 0 1 0 24zm14-3a.997.997 0 0 1 1-1h14a.997.997 0 0 1 1 1v2a.997.997 0 0 1-1 1H15a.997.997 0 0 1-1-1v-2zm0-10a.997.997 0 0 1 1-1h10a.997.997 0 0 1 1 1 .997.997 0 0 1-1 1H15a.997.997 0 0 1-1-1zm0 16a.997.997 0 0 1 1-1h10a.997.997 0 0 1 1 1 .997.997 0 0 1-1 1H15a.997.997 0 0 1-1-1zM6 2a5.99 5.99 0 0 0-4.243 1.758A6.01 6.01 0 0 0-.001 8.001a5.99 5.99 0 0 0 1.758 4.243A6.01 6.01 0 0 0 6 14.002a5.996 5.996 0 0 0 6-6 5.996 5.996 0 0 0-6-6zm0 9a3.004 3.004 0 0 1-3-3 3.004 3.004 0 0 1 3-3 3.004 3.004 0 0 1 3 3 3.004 3.004 0 0 1-3 3z"/>
    </symbol>
    <symbol id="icon-wind" viewBox="0 0 32 32">
      <path d="M25 4a5 5 0 0 0-5 5 .997.997 0 0 1-1 1 .997.997 0 0 1-1-1 6.994 6.994 0 0 1 4.322-6.467 6.998 6.998 0 0 1 9.544 5.102 7.006 7.006 0 0 1-2.976 7.186 6.994 6.994 0 0 1-3.889 1.18h-24a.997.997 0 0 1-1-1 .997.997 0 0 1 1-1h24a5 5 0 0 0 0-10zM11 6a2 2 0 0 0-2 2 .997.997 0 0 1-1 1 .997.997 0 0 1-1-1 4.004 4.004 0 0 1 2.469-3.695A4 4 0 1 1 11 12H1a.997.997 0 0 1-1-1 .997.997 0 0 1 1-1h10a2 2 0 0 0 0-4zM0 19a.997.997 0 0 1 1-1h20.084a5.998 5.998 0 0 1 4.242 10.243 5.996 5.996 0 0 1-6.539 1.301 5.999 5.999 0 0 1-3.704-5.543.997.997 0 0 1 1-1 .997.997 0 0 1 1 1 4.004 4.004 0 0 0 2.469 3.695 4 4 0 1 0 1.531-7.695H.999a.997.997 0 0 1-1-1z"/>
    </symbol>
    <symbol id="icon-gas" viewBox="0 0 32 32">
    <path d="M16 2.9l-0.46 0.5c0 0-0.688 0.712-1.36 1.76s-1.38 2.435-1.38 3.92c0 0.88 0.33 1.758 0.88 2.46 0.020 0.025 0.040 0.055 0.060 0.080-0.655 0.070-1.29 0.172-1.9 0.3 0.060-0.188 0.11-0.387 0.14-0.58 0.14-0.877-0.002-1.79-0.4-2.56-1.313-2.547-2.8-3.86-2.8-3.86l-0.46-0.36-0.42 0.4c0 0-2.232 2.138-1.86 5.26 0.12 1 0.537 1.793 0.94 2.3 0.178 0.225 0.478 0.55 0.88 0.82-0.385 0.21-0.747 0.435-1.080 0.68-0.020-0.172-0.058-0.352-0.1-0.52-0.228-0.877-0.732-1.703-1.52-2.18-2.16-1.31-3.34-2.12-3.34-2.12l-0.56-0.38-0.34 0.58c0 0-1.82 2.86-0.14 5.6 0.527 0.857 1.242 1.408 1.82 1.7 0.335 0.17 0.913 0.38 1.6 0.4 0.115 0.003 0.24-0.008 0.36-0.020-0.063 0.275-0.1 0.55-0.1 0.84 0 1.11 0.492 2.11 1.3 2.98v2.78c0 1.88 1.26 3.505 3.12 4.62s4.365 1.78 7.12 1.78c2.755 0 5.26-0.665 7.12-1.78s3.12-2.74 3.12-4.62v-2.78c0.808-0.87 1.3-1.87 1.3-2.98 0-0.29-0.038-0.565-0.1-0.84 0.12 0.012 0.245 0.023 0.36 0.020 0.688-0.020 1.265-0.23 1.6-0.4 0.578-0.293 1.295-0.842 1.82-1.7 1.68-2.74-0.14-5.6-0.14-5.6l-0.34-0.58-0.56 0.38c0 0-1.18 0.81-3.34 2.12-0.788 0.477-1.293 1.303-1.52 2.18-0.043 0.168-0.080 0.348-0.1 0.52-0.332-0.245-0.695-0.47-1.080-0.68 0.402-0.27 0.703-0.595 0.88-0.82 0.402-0.508 0.82-1.3 0.94-2.3 0.372-3.123-1.86-5.26-1.86-5.26l-0.42-0.4-0.46 0.36c0 0-1.488 1.313-2.8 3.86-0.398 0.77-0.54 1.682-0.4 2.56 0.030 0.193 0.080 0.393 0.14 0.58-0.61-0.127-1.245-0.23-1.9-0.3 0.020-0.025 0.040-0.055 0.060-0.080 0.55-0.703 0.88-1.58 0.88-2.46 0-1.485-0.707-2.873-1.38-3.92s-1.36-1.76-1.36-1.76zM16 4.88c0.23 0.27 0.365 0.397 0.74 0.98 0.608 0.942 1.18 2.165 1.18 3.22 0 0.535-0.242 1.2-0.62 1.68-0.11 0.143-0.235 0.255-0.36 0.36 0.005-0.040 0.020-0.080 0.020-0.12 0-0.96-0.96-1.98-0.96-1.98s-0.96 1.020-0.96 1.98c0 0.040 0.015 0.080 0.020 0.12-0.125-0.105-0.25-0.217-0.36-0.36-0.377-0.48-0.62-1.145-0.62-1.68 0-1.055 0.572-2.277 1.18-3.22 0.375-0.582 0.51-0.71 0.74-0.98zM8.42 6.4c0.457 0.473 1.188 1.308 2.040 2.96 0.25 0.485 0.355 1.178 0.26 1.78-0.027 0.172-0.063 0.33-0.12 0.48-0.020-0.037-0.035-0.068-0.060-0.1-0.703-0.86-1.64-2.020-1.64-2.020s-0.647 1.59-0.060 2.92c-0.005-0.002-0.015 0.002-0.020 0-0.37-0.185-0.715-0.522-0.84-0.68-0.258-0.325-0.575-0.945-0.66-1.66-0.228-1.91 0.635-3.12 1.1-3.68zM23.58 6.4c0.465 0.56 1.328 1.77 1.1 3.68-0.085 0.715-0.402 1.335-0.66 1.66-0.125 0.158-0.47 0.495-0.84 0.68-0.005 0.002-0.015-0.002-0.020 0 0.587-1.33-0.060-2.92-0.060-2.92s-0.938 1.16-1.64 2.020c-0.025 0.033-0.040 0.063-0.060 0.1-0.058-0.15-0.093-0.307-0.12-0.48-0.095-0.603 0.010-1.295 0.26-1.78 0.852-1.652 1.582-2.487 2.040-2.96zM1.76 10.68c0.372 0.25 0.98 0.672 2.74 1.74 0.42 0.255 0.785 0.805 0.94 1.4 0.048 0.185 0.072 0.365 0.080 0.54-0.035-0.025-0.063-0.060-0.1-0.080-0.998-0.488-2.34-1.14-2.34-1.14s0.078 1.717 1.16 2.68c-0.008 0-0.013 0-0.020 0-0.415-0.012-0.862-0.17-1.040-0.26-0.37-0.188-0.922-0.625-1.3-1.24-0.978-1.592-0.443-2.97-0.12-3.64zM30.24 10.68c0.323 0.67 0.858 2.047-0.12 3.64-0.378 0.615-0.93 1.053-1.3 1.24-0.177 0.090-0.625 0.248-1.040 0.26-0.008 0-0.012 0-0.020 0 1.082-0.963 1.16-2.68 1.16-2.68s-1.343 0.652-2.34 1.14c-0.038 0.020-0.065 0.055-0.1 0.080 0.008-0.175 0.032-0.355 0.080-0.54 0.155-0.595 0.52-1.145 0.94-1.4 1.76-1.068 2.367-1.49 2.74-1.74zM16 12.82c2.91 0 5.532 0.623 7.38 1.6s2.84 2.245 2.84 3.5c0 1.255-0.992 2.523-2.84 3.5s-4.47 1.6-7.38 1.6c-2.91 0-5.532-0.622-7.38-1.6s-2.84-2.245-2.84-3.5c0-1.255 0.992-2.523 2.84-3.5s4.47-1.6 7.38-1.6zM7.040 22c0.3 0.205 0.622 0.4 0.96 0.58 0.393 0.207 0.82 0.405 1.26 0.58 0 0.015 0 0.025 0 0.040 0 0.707 0.495 1.425 1.12 1.6 0.617 0.175 1.13-0.245 1.14-0.94 1 0.23 2.080 0.372 3.2 0.44 0 0.008 0 0.012 0 0.020 0 0.707 0.572 1.28 1.28 1.28s1.28-0.573 1.28-1.28c0-0.008 0-0.012 0-0.020 1.12-0.067 2.2-0.21 3.2-0.44 0.010 0.695 0.523 1.115 1.14 0.94 0.625-0.175 1.12-0.892 1.12-1.6 0-0.015 0-0.025 0-0.040 0.44-0.175 0.867-0.372 1.26-0.58 0.337-0.18 0.66-0.375 0.96-0.58v1.68c0 1.302-0.885 2.553-2.5 3.52s-3.913 1.6-6.46 1.6c-2.547 0-4.845-0.633-6.46-1.6s-2.5-2.218-2.5-3.52z"></path>
    </symbol>
    <symbol id="icon-microwave" viewBox="0 0 32 32">
    <path d="M27.654 6.5h-23.154c-1.103 0.002-1.998 0.896-2 2v16c0.002 1.104 0.897 1.998 2 2v1c0 0.276 0.223 0.5 0.5 0.5s0.5-0.224 0.5-0.5v-1h21v1c0 0.276 0.224 0.5 0.5 0.5s0.5-0.224 0.5-0.5v-1h0.154c1.104-0.002 1.998-0.896 2-2v-16c-0.002-1.104-0.896-1.998-2-2zM28.654 24.5c0 0.275-0.111 0.523-0.294 0.706s-0.431 0.294-0.706 0.294h-23.154c-0.275 0-0.522-0.111-0.706-0.294s-0.294-0.431-0.294-0.706v-16c0-0.275 0.111-0.522 0.294-0.706s0.431-0.294 0.706-0.294h23.154c0.275 0 0.523 0.112 0.706 0.294 0.183 0.184 0.294 0.431 0.294 0.706v16z"></path>
    <path d="M20 9.5h-12.654c-1.104 0.002-1.998 0.896-2 2v10.236c0.002 1.104 0.896 1.998 2 2h12.654c1.104-0.002 1.998-0.896 2-2v-10.236c-0.002-1.104-0.896-1.998-2-2zM21 21.735c0 0.275-0.111 0.523-0.294 0.706s-0.431 0.294-0.706 0.294h-12.654c-0.275 0-0.522-0.111-0.706-0.294s-0.294-0.431-0.294-0.706v-10.236c0-0.275 0.112-0.522 0.294-0.706 0.184-0.182 0.431-0.294 0.706-0.294h12.654c0.275 0 0.523 0.111 0.706 0.294s0.294 0.431 0.294 0.706v10.236z"></path>
    <path d="M24.5 13h1.5c0.276 0 0.5-0.223 0.5-0.5s-0.224-0.5-0.5-0.5h-1.5c-0.276 0-0.5 0.223-0.5 0.5s0.224 0.5 0.5 0.5z"></path>
    <path d="M24.5 16h1.5c0.276 0 0.5-0.223 0.5-0.5s-0.224-0.5-0.5-0.5h-1.5c-0.276 0-0.5 0.223-0.5 0.5s0.224 0.5 0.5 0.5z"></path>
    <path d="M25.25 18c-0.967 0-1.75 0.783-1.75 1.75s0.783 1.75 1.75 1.75c0.967-0 1.75-0.783 1.75-1.75s-0.783-1.75-1.75-1.75zM25.25 20.5c-0.414-0.001-0.749-0.336-0.75-0.75 0.001-0.414 0.336-0.749 0.75-0.75 0.414 0.001 0.749 0.336 0.75 0.75-0.001 0.414-0.336 0.749-0.75 0.75z"></path>
    </symbol>
    <symbol id="icon-water" viewBox="0 0 32 32">
    <path d="M28.343 19.657v-4.514c0-2.4-1.943-4.286-4.286-4.286h-8.971v-2.4h-1.429v-2.914h2.343v-3.829h-8.457v3.829h2.343v2.914h-2.229v2.4h-4.8v-7.943h-1.143v22.229h1.143v-8h3.257c0.914 2.057 2.971 3.429 5.257 3.429s4.343-1.371 5.257-3.429h5.429v2.514h-1.943v4h10.171v-4h-1.943zM8.686 4.4v-1.543h6.171v1.543h-6.171zM11.029 5.543h1.543v2.914h-1.543v-2.914zM15.829 16l-0.114 0.4c-0.629 1.829-2.343 3.029-4.286 3.029s-3.657-1.2-4.286-3.029l-0.229-0.4h-4.057v-4h5.943v-2.4h5.2v2.4h10.114c1.771 0 3.143 1.429 3.143 3.143v4.514h-4v-3.657h-7.429zM29.143 22.514h-7.886v-1.714h7.886v1.714z"></path>
    <path d="M25.2 24.743l-0.457 0.571c-0.4 0.457-1.6 2.057-1.6 2.971 0 1.143 0.914 2.057 2.057 2.057s2.057-0.914 2.057-2.057c0-0.914-1.2-2.514-1.6-2.971l-0.457-0.571zM25.2 29.143c-0.514 0-0.914-0.4-0.914-0.914 0-0.286 0.4-0.971 0.914-1.657 0.457 0.686 0.914 1.371 0.914 1.657-0.057 0.514-0.4 0.914-0.914 0.914z"></path>
    </symbol>
    <symbol id="icon-fridge" viewBox="0 0 32 32">
    <path d="M22.699 0h-13.397c-0.865 0-1.568 0.703-1.568 1.568v28.864c0 0.865 0.703 1.568 1.568 1.568h13.397c0.865 0 1.568-0.703 1.568-1.568v-28.864c0-0.865-0.703-1.568-1.568-1.568zM23.2 30.432c0 0.277-0.225 0.501-0.501 0.501h-13.397c-0.277 0-0.501-0.225-0.501-0.501v-10.699h14.4v10.699zM8.8 18.667v-17.099c0-0.276 0.225-0.501 0.501-0.501h13.397c0.277 0 0.501 0.225 0.501 0.501v17.099h-14.4z"></path>
    <path d="M9.867 11.2c-0.295 0-0.533 0.238-0.533 0.533s0.238 0.533 0.533 0.533c0.294 0 0.533 0.239 0.533 0.533v3.2c0 0.294-0.239 0.533-0.533 0.533s-0.533 0.238-0.533 0.533 0.238 0.533 0.533 0.533c0.882 0 1.6-0.718 1.6-1.6v-3.2c0-0.882-0.718-1.6-1.6-1.6z"></path>
    <path d="M9.867 26.133c-0.295 0-0.533 0.238-0.533 0.533s0.238 0.533 0.533 0.533c0.882 0 1.6-0.718 1.6-1.6v-3.2c0-0.882-0.718-1.6-1.6-1.6-0.295 0-0.533 0.238-0.533 0.533s0.238 0.533 0.533 0.533c0.294 0 0.533 0.239 0.533 0.533v3.2c0 0.294-0.239 0.533-0.533 0.533z"></path>
    <path d="M16.267 3.2h-1.067c-0.295 0-0.533 0.238-0.533 0.533s0.238 0.533 0.533 0.533h1.067c0.295 0 0.533-0.238 0.533-0.533s-0.238-0.533-0.533-0.533z"></path>
    </symbol>    
  </defs>
</svg>






